<?xml version="1.0" encoding="UTF-8" standalone="no"?>
<!-- Created with Inkscape (http://www.inkscape.org/) -->
<svg
   xmlns:dc="http://purl.org/dc/elements/1.1/"
   xmlns:cc="http://web.resource.org/cc/"
   xmlns:rdf="http://www.w3.org/1999/02/22-rdf-syntax-ns#"
   xmlns:svg="http://www.w3.org/2000/svg"
   xmlns="http://www.w3.org/2000/svg"
   xmlns:sodipodi="http://sodipodi.sourceforge.net/DTD/sodipodi-0.dtd"
   xmlns:inkscape="http://www.inkscape.org/namespaces/inkscape"
   width="744.09448819"
   height="1052.3622047"
   id="svg2"
   sodipodi:version="0.32"
   inkscape:version="0.44"
   inkscape:export-filename="Cabal-With-Text-Light-Dark.png"
   inkscape:export-xdpi="90.000000"
   inkscape:export-ydpi="90.000000"
   sodipodi:docbase="/home/cale/Artwork"
   sodipodi:docname="built-with-Cabal.svg">
  <defs
     id="defs4" />
  <sodipodi:namedview
     id="base"
     pagecolor="#ffffff"
     bordercolor="#666666"
     borderopacity="1.0"
     inkscape:pageopacity="0.0"
     inkscape:pageshadow="2"
     inkscape:zoom="1"
     inkscape:cx="440.98606"
     inkscape:cy="745.01819"
     inkscape:document-units="px"
     inkscape:current-layer="layer1"
     showguides="true"
     inkscape:guide-bbox="true"
     inkscape:window-width="1061"
     inkscape:window-height="911"
     inkscape:window-x="48"
     inkscape:window-y="54">
    <sodipodi:guide
       orientation="vertical"
       position="348.60364"
       id="guide1993" />
    <sodipodi:guide
       orientation="vertical"
       position="603.86919"
       id="guide1995" />
    <sodipodi:guide
       orientation="horizontal"
       position="902.26825"
       id="guide1997" />
    <sodipodi:guide
       orientation="horizontal"
       position="736.09816"
       id="guide1999" />
    <sodipodi:guide
       orientation="horizontal"
       position="748.82608"
       id="guide2001" />
    <sodipodi:guide
       orientation="horizontal"
       position="518.30927"
       id="guide2003" />
    <sodipodi:guide
       orientation="horizontal"
       position="529.62298"
       id="guide2005" />
    <sodipodi:guide
       orientation="horizontal"
       position="683.77226"
       id="guide2007" />
  </sodipodi:namedview>
  <metadata
     id="metadata7">
    <rdf:RDF>
      <cc:Work
         rdf:about="">
        <dc:format>image/svg+xml</dc:format>
        <dc:type
           rdf:resource="http://purl.org/dc/dcmitype/StillImage" />
      </cc:Work>
    </rdf:RDF>
  </metadata>
  <g
     inkscape:label="Layer 1"
     inkscape:groupmode="layer"
     id="layer1">
    <path
       style="font-size:202.72231px;font-style:normal;font-variant:normal;font-weight:normal;font-stretch:normal;text-align:start;line-height:125.00000%;writing-mode:lr-tb;text-anchor:start;fill:#ffffff;fill-opacity:1.0000000;stroke:none;stroke-width:1.0000000px;stroke-linecap:butt;stroke-linejoin:miter;stroke-opacity:1.0000000;font-family:Georgia"
       d="M 393.47699,388.26261 C 383.14999,395.38070 365.13271,393.47983 351.07074,393.10636 C 321.12042,390.36663 298.93676,419.79786 297.63324,448.98136 C 293.35724,479.89751 315.85738,514.95719 348.50824,514.04386 C 361.32393,514.54019 373.13784,509.66433 381.97699,500.88761 C 387.75919,517.14247 413.65059,516.73941 424.19569,503.95011 C 425.23879,504.70583 426.53769,505.86127 429.62069,507.89659 C 435.78659,511.96724 443.64639,516.12458 450.82069,513.20011 C 453.88709,511.95017 459.96409,504.78862 466.03949,508.76261 C 483.98769,519.42895 503.96159,509.11847 512.91449,492.41886 C 512.84289,493.48419 512.75139,494.53127 512.82069,495.66886 C 514.27059,517.36926 544.57869,518.25816 556.19569,504.16886 C 557.37259,505.05665 558.85349,506.14695 560.26419,507.17621 C 565.47689,510.97947 573.44509,515.22828 579.82069,514.32511 C 588.16399,515.65475 603.74729,511.98042 610.82069,514.01261 C 613.89499,505.12047 599.70199,510.09660 599.47699,502.32511 C 595.70839,471.82522 597.38969,454.13261 599.25819,418.82511 C 599.72239,412.82767 600.15669,414.43248 600.50819,405.16886 C 601.30019,384.30050 575.00209,390.46096 562.10199,391.76261 C 571.47029,396.87638 588.01019,384.87584 586.44569,419.41886 C 586.68869,438.00002 585.76169,443.13834 586.13319,461.82511 C 584.74099,478.78721 587.63989,497.10249 581.22699,505.16886 C 564.35159,500.74790 572.75729,475.92803 573.57069,459.10636 C 575.20229,434.35437 569.49919,426.77261 546.72699,426.91886 C 517.55389,427.10624 512.06459,469.67158 531.91449,455.79386 C 525.39874,426.83354 566.07996,426.65405 562.72699,452.23136 C 549.95979,457.97004 526.72299,466.83740 517.16449,480.41886 C 517.71899,477.29073 517.91159,474.09112 517.63319,470.85636 C 519.38239,447.67395 499.96759,420.85251 475.00819,431.85636 C 469.13179,434.05586 465.69499,436.20265 461.69569,437.76261 C 461.58559,431.19082 462.31289,415.55585 462.66449,404.85636 C 463.35029,383.98423 437.12709,390.14846 424.22699,391.45011 C 433.59529,396.56388 451.45399,385.70725 450.00819,420.48136 C 449.66409,448.50866 450.43619,476.77559 448.72699,504.60636 C 433.24409,499.44550 440.77449,475.35340 441.57069,458.88761 C 443.20229,434.13562 437.49919,426.55385 414.72699,426.70011 C 385.55389,426.88749 380.06459,469.45285 399.91449,455.57511 C 393.75229,426.61479 433.65599,426.78883 430.57069,452.26261 C 416.78929,458.64756 386.37069,468.65588 381.53949,488.16886 C 380.70329,489.41137 379.95359,490.78269 379.44569,492.41886 C 365.99920,513.98546 331.07902,509.61767 320.97699,486.29386 C 310.87496,462.97005 309.08890,423.29779 333.35199,407.07511 C 355.21684,392.45594 387.14229,402.47536 382.69569,436.45011 C 395.94599,439.26188 391.27449,398.92375 393.47699,388.26261 z M 477.63319,439.98136 C 492.23249,440.74083 502.65529,454.09120 503.50819,472.20011 C 504.38599,493.88765 496.09029,509.25688 474.88319,501.57511 C 455.30699,490.24056 459.99209,462.26058 461.35199,443.70011 C 466.94779,440.86055 472.76679,439.72820 477.63319,439.98136 z M 430.03949,458.35636 C 429.63889,465.63982 429.59711,477.29860 427.03965,487.10791 C 424.48219,496.91721 418.44567,504.78282 408.94569,504.76261 C 394.57884,504.73205 392.34287,492.83630 397.15714,483.92809 C 401.97142,475.01989 414.23084,465.32215 430.03949,458.35636 z M 562.53949,458.45011 C 562.07639,465.67107 562.15961,477.39235 559.61778,487.26415 C 557.07594,497.13596 551.82660,504.99453 540.94569,504.98136 C 526.37999,504.96374 524.70224,492.89879 529.75870,483.89684 C 534.81517,474.89488 547.19959,465.16590 562.53949,458.45011 z "
       id="path1371"
       sodipodi:nodetypes="ccccccssccccsccccscccccsccccccsccccscccczsccccccccsssccsssc"
       inkscape:export-filename="/home/cale/built-with-Cabal-light.png"
       inkscape:export-xdpi="15.904792"
       inkscape:export-ydpi="15.904792" />
    <rect
       style="opacity:1.0000000;color:#000000;fill:#f1f1f1;fill-opacity:1.0000000;fill-rule:evenodd;stroke:none;stroke-width:2.0987501;stroke-linecap:butt;stroke-linejoin:miter;marker:none;marker-start:none;marker-mid:none;marker-end:none;stroke-miterlimit:4.0000000;stroke-dasharray:none;stroke-dashoffset:0.0000000;stroke-opacity:1.0000000;visibility:visible;display:inline;overflow:visible"
       id="rect2317"
       width="611.13660"
       height="209.93242"
       x="52.934830"
       y="347.36218"
       rx="8.1943188"
       ry="8.1971140"
       inkscape:export-filename="/home/cale/built-with-Cabal-light.png"
       inkscape:export-xdpi="15.904792"
       inkscape:export-ydpi="15.904792" />
    <rect
       style="opacity:1.0000000;color:#000000;fill:#303030;fill-opacity:1.0000000;fill-rule:evenodd;stroke:none;stroke-width:2.0987501;stroke-linecap:butt;stroke-linejoin:miter;marker:none;marker-start:none;marker-mid:none;marker-end:none;stroke-miterlimit:4.0000000;stroke-dasharray:none;stroke-dashoffset:0.0000000;stroke-opacity:1.0000000;visibility:visible;display:inline;overflow:visible"
       id="rect2307"
       width="611.13660"
       height="209.93242"
       x="53.438133"
       y="132.64691"
       rx="8.1943188"
       ry="8.1971140"
       inkscape:export-filename="/home/cale/built-with-Cabal-dark.png"
       inkscape:export-xdpi="15.904792"
       inkscape:export-ydpi="15.904792" />
    <rect
       style="opacity:1.0000000;color:#000000;fill:#6bc9dd;fill-opacity:1.0000000;fill-rule:evenodd;stroke:none;stroke-width:2.0987501;stroke-linecap:butt;stroke-linejoin:miter;marker:none;marker-start:none;marker-mid:none;marker-end:none;stroke-miterlimit:4.0000000;stroke-dasharray:none;stroke-dashoffset:0.0000000;stroke-opacity:1.0000000;visibility:visible;display:inline;overflow:visible"
       id="rect2039"
       width="71.415276"
       height="104.27237"
       x="-85.747696"
       y="206.47623"
       ry="8.1971111"
       rx="8.1943159"
       transform="matrix(-0.983393,0.181487,0.601916,0.798559,0.000000,0.000000)"
       inkscape:export-filename="/home/cale/built-with-Cabal-dark.png"
       inkscape:export-xdpi="15.904792"
       inkscape:export-ydpi="15.904792" />
    <rect
       style="opacity:1.0000000;color:#000000;fill:#6a6bd7;fill-opacity:1.0000000;fill-rule:evenodd;stroke:none;stroke-width:2.0987501;stroke-linecap:butt;stroke-linejoin:miter;marker:none;marker-start:none;marker-mid:none;marker-end:none;stroke-miterlimit:4.0000000;stroke-dasharray:none;stroke-dashoffset:0.0000000;stroke-opacity:1.0000000;visibility:visible;display:inline;overflow:visible"
       id="rect2041"
       width="72.138588"
       height="81.999947"
       x="-517.21075"
       y="406.24854"
       rx="7.1182766"
       ry="8.1971159"
       transform="matrix(-0.985282,0.170934,-0.591748,0.806123,0.000000,0.000000)"
       inkscape:export-filename="/home/cale/built-with-Cabal-dark.png"
       inkscape:export-xdpi="15.904792"
       inkscape:export-ydpi="15.904792" />
    <path
       sodipodi:type="star"
       style="opacity:1.0000000;color:#000000;fill:#567dd9;fill-opacity:1.0000000;fill-rule:evenodd;stroke:none;stroke-width:2.0987501;stroke-linecap:butt;stroke-linejoin:miter;marker:none;marker-start:none;marker-mid:none;marker-end:none;stroke-miterlimit:4.0000000;stroke-dasharray:none;stroke-dashoffset:0.0000000;stroke-opacity:1.0000000;visibility:visible;display:inline;overflow:visible"
       id="path2061"
       sodipodi:sides="5"
       sodipodi:cx="142.00000"
       sodipodi:cy="228.36218"
       sodipodi:r1="23.282461"
       sodipodi:r2="41.484936"
       sodipodi:arg1="1.9378187"
       sodipodi:arg2="2.5661372"
       inkscape:flatsided="false"
       inkscape:rounded="0.090000000"
       inkscape:randomized="0.0000000"
       d="M 133.64537,250.09403 C 131.42237,249.23942 108.49256,252.93703 107.19644,250.93899 C 105.90032,248.94094 118.62422,229.51026 118.75006,227.13197 C 118.87590,224.75368 108.27356,204.08876 109.77329,202.23865 C 111.27302,200.38854 133.68460,206.48527 135.98537,205.87002 C 138.28615,205.25477 154.66336,188.78553 156.88636,189.64014 C 159.10936,190.49476 160.23658,213.69343 161.53269,215.69147 C 162.82881,217.68952 183.55283,228.17589 183.42698,230.55418 C 183.30114,232.93247 161.58623,241.17330 160.08649,243.02341 C 158.58676,244.87352 155.01770,267.82370 152.71693,268.43895 C 150.41615,269.05420 135.86838,250.94865 133.64537,250.09403 z "
       transform="matrix(0.629241,-0.714808,-0.590778,-0.879095,184.8544,544.0709)"
       inkscape:export-filename="/home/cale/built-with-Cabal-dark.png"
       inkscape:export-xdpi="15.904792"
       inkscape:export-ydpi="15.904792" />
    <rect
       style="opacity:1.0000000;color:#000000;fill:#2d9bbd;fill-opacity:1.0000000;fill-rule:evenodd;stroke:none;stroke-width:2.0987501;stroke-linecap:butt;stroke-linejoin:miter;marker:none;marker-start:none;marker-mid:none;marker-end:none;stroke-miterlimit:4.0000000;stroke-dasharray:none;stroke-dashoffset:0.0000000;stroke-opacity:1.0000000;visibility:visible;display:inline;overflow:visible"
       id="rect2309"
       width="71.414703"
       height="104.27162"
       x="61.101749"
       y="446.21326"
       ry="8.1970396"
       rx="8.1942444"
       transform="matrix(-0.983393,0.181487,0.601916,0.798559,0.000000,0.000000)"
       inkscape:export-filename="/home/cale/built-with-Cabal-light.png"
       inkscape:export-xdpi="15.904792"
       inkscape:export-ydpi="15.904792" />
    <rect
       style="opacity:1.0000000;color:#000000;fill:#4a4bcd;fill-opacity:1.0000000;fill-rule:evenodd;stroke:none;stroke-width:2.0987501;stroke-linecap:butt;stroke-linejoin:miter;marker:none;marker-start:none;marker-mid:none;marker-end:none;stroke-miterlimit:4.0000000;stroke-dasharray:none;stroke-dashoffset:0.0000000;stroke-opacity:1.0000000;visibility:visible;display:inline;overflow:visible"
       id="rect2311"
       width="72.137825"
       height="81.999947"
       x="-703.28143"
       y="716.25806"
       rx="7.1181931"
       ry="8.1971159"
       transform="matrix(-0.985282,0.170934,-0.591748,0.806123,0.000000,0.000000)"
       inkscape:export-filename="/home/cale/built-with-Cabal-light.png"
       inkscape:export-xdpi="15.904792"
       inkscape:export-ydpi="15.904792" />
    <path
       sodipodi:type="star"
       style="opacity:1.0000000;color:#000000;fill:#2e5bc1;fill-opacity:1.0000000;fill-rule:evenodd;stroke:none;stroke-width:2.0987501;stroke-linecap:butt;stroke-linejoin:miter;marker:none;marker-start:none;marker-mid:none;marker-end:none;stroke-miterlimit:4.0000000;stroke-dasharray:none;stroke-dashoffset:0.0000000;stroke-opacity:1.0000000;visibility:visible;display:inline;overflow:visible"
       id="path2313"
       sodipodi:sides="5"
       sodipodi:cx="142.00000"
       sodipodi:cy="228.36218"
       sodipodi:r1="23.282461"
       sodipodi:r2="41.484936"
       sodipodi:arg1="1.9378187"
       sodipodi:arg2="2.5661372"
       inkscape:flatsided="false"
       inkscape:rounded="0.090000000"
       inkscape:randomized="0.0000000"
       d="M 133.64537,250.09403 C 131.42237,249.23942 108.49256,252.93703 107.19644,250.93899 C 105.90032,248.94094 118.62422,229.51026 118.75006,227.13197 C 118.87590,224.75368 108.27356,204.08876 109.77329,202.23865 C 111.27302,200.38854 133.68460,206.48527 135.98537,205.87002 C 138.28615,205.25477 154.66336,188.78553 156.88636,189.64014 C 159.10936,190.49476 160.23658,213.69343 161.53269,215.69147 C 162.82881,217.68952 183.55283,228.17589 183.42698,230.55418 C 183.30114,232.93247 161.58623,241.17330 160.08649,243.02341 C 158.58676,244.87352 155.01770,267.82370 152.71693,268.43895 C 150.41615,269.05420 135.86838,250.94865 133.64537,250.09403 z "
       transform="matrix(0.629241,-0.714808,-0.590778,-0.879095,184.7475,762.1694)"
       inkscape:export-filename="/home/cale/built-with-Cabal-light.png"
       inkscape:export-xdpi="15.904792"
       inkscape:export-ydpi="15.904792" />
    <g
       id="g4257"
       transform="translate(-4.949617,-5.656605)"
       style="opacity:0.74052477" />
    <path
       style="font-size:202.7223053px;font-style:normal;font-variant:normal;font-weight:normal;font-stretch:normal;text-align:start;line-height:125%;writing-mode:lr-tb;text-anchor:start;fill:white;fill-opacity:1;stroke:none;stroke-width:1px;stroke-linecap:butt;stroke-linejoin:miter;stroke-opacity:1;font-family:Georgia"
       d="M 427.43277,209.47246 C 419.07061,215.23624 404.48134,213.69704 393.09484,213.39463 C 368.84295,211.17616 350.88,235.00773 349.8245,258.63871 C 346.36206,283.67267 364.58126,312.06181 391.01989,311.32225 C 401.39723,311.72415 410.9634,307.77598 418.12079,300.66914 C 422.80285,313.83131 443.76809,313.50494 452.30685,303.14896 C 453.15149,303.7609 454.20326,304.6965 456.69968,306.34458 C 461.69244,309.64073 468.05681,313.00709 473.86611,310.63903 C 476.34909,309.62691 481.26987,303.82794 486.18934,307.04582 C 500.72267,315.68276 516.89629,307.33398 524.14579,293.81168 C 524.08781,294.67431 524.01372,295.52217 524.06983,296.44332 C 525.24387,314.01495 549.78548,314.73473 559.1922,303.32609 C 560.14518,304.04497 561.34432,304.92783 562.48661,305.76126 C 566.70753,308.8409 573.15968,312.28132 578.32224,311.54999 C 585.07813,312.62665 597.69651,309.65141 603.42411,311.29695 C 605.91348,304.09665 594.21844,308.12601 594.03625,301.83314 C 590.98468,277.13624 592.24485,262.80327 593.85908,234.22006 C 594.13372,229.35711 594.51506,228.08662 594.87125,223.16208 C 596.09118,206.29609 574.42044,211.25255 563.97475,212.30654 C 571.56061,216.44735 584.95359,206.73007 583.68676,234.70084 C 583.88352,249.7467 583.13289,253.90739 583.43371,269.03877 C 582.3064,282.77362 584.65374,297.60419 579.46098,304.13583 C 565.79633,300.55601 572.46079,280.45032 573.26139,266.8373 C 574.4406,246.78657 569.96454,240.65545 551.52504,240.77387 C 527.90248,240.9256 524.68659,275.14079 543.17462,263.1776 C 536.75343,240.5862 567.19586,240.55945 564.48084,261.27035 C 554.14276,265.91718 535.32705,273.09741 527.58717,284.09483 C 528.03617,281.56186 528.19213,278.97102 527.9667,276.35171 C 529.38309,257.58005 514.52105,235.57544 493.45164,244.77195 C 488.6933,246.55297 485.91039,248.29131 482.67201,249.55446 C 482.58285,244.23304 483.17178,231.57282 483.45648,222.90904 C 484.0118,206.0081 462.77789,210.9995 452.3322,212.0535 C 459.91806,216.19431 474.37892,207.40329 473.2082,235.56119 C 472.92957,258.25594 473.55477,281.14474 472.17076,303.68035 C 459.63368,299.50141 465.73133,279.99314 466.37604,266.66017 C 467.69721,246.61755 463.07919,240.47831 444.63969,240.59674 C 421.01714,240.74847 417.78685,274.4055 436.28927,263.16818 C 431.29951,240.57678 459.96721,240.66858 457.46893,261.29566 C 446.30961,266.46579 421.67853,274.5699 417.76653,290.37029 C 417.08943,291.3764 416.48237,292.48681 416.0711,293.81168 C 405.18297,311.27496 376.9068,307.7382 368.7268,288.85204 C 360.54681,269.96587 359.10057,237.84176 378.74731,224.70565 C 396.45209,212.86796 422.30333,220.98106 418.70275,248.49168 C 429.43201,250.76848 425.64932,218.10518 427.43277,209.47246 z M 497.19667,250.54133 C 510.16048,250.54133 516.64827,262.77634 517.33889,277.4398 C 518.04968,295.00101 509.83845,308.91382 493.35042,301.22584 C 476.81468,293.5156 481.29254,269.39139 482.3937,254.36228 C 486.92483,252.06298 493.25133,250.54133 497.19667,250.54133 z M 457.0388,266.23 C 456.71442,272.12769 456.68058,281.56824 454.60971,289.5112 C 452.53884,297.45416 448.25815,303.82324 440.56566,303.80687 C 428.93228,303.78213 427.12173,294.14969 431.02003,286.93638 C 434.91833,279.72308 444.23794,271.87046 457.0388,266.23 z M 564.32901,266.30591 C 563.95402,272.15299 564.02141,281.64415 561.96319,289.63772 C 559.90497,297.63129 555.65438,303.99467 546.8437,303.984 C 535.04931,303.96974 533.69077,294.20029 537.78518,286.91108 C 541.87959,279.62185 551.90772,271.74393 564.32901,266.30591 z "
       id="path2787"
       sodipodi:nodetypes="ccccccssccccscccssccccssccccccsccccscccczsccccscscsssccsssc"
       inkscape:export-filename="/home/cale/built-with-Cabal-dark.png"
       inkscape:export-xdpi="15.904792"
       inkscape:export-ydpi="15.904792" />
    <path
       style="font-size:202.7223053px;font-style:normal;font-variant:normal;font-weight:normal;font-stretch:normal;text-align:start;line-height:125%;writing-mode:lr-tb;text-anchor:start;fill:black;fill-opacity:1;stroke:none;stroke-width:1px;stroke-linecap:butt;stroke-linejoin:miter;stroke-opacity:1;font-family:Georgia"
       d="M 426.87486,427.26653 C 418.48687,433.04813 403.85252,431.50416 392.43082,431.20081 C 368.10398,428.9755 350.08554,452.88071 349.02676,476.5847 C 345.55363,501.69602 363.82914,530.17289 390.34946,529.43105 C 400.75887,529.83419 410.3546,525.87382 417.53411,518.74502 C 422.23064,531.94786 443.26066,531.62048 451.82581,521.23252 C 452.67306,521.84634 453.72807,522.78483 456.23221,524.43799 C 461.2404,527.74434 467.62444,531.1211 473.45169,528.74573 C 475.94235,527.73047 480.87833,521.91357 485.813,525.14141 C 500.39125,533.80504 516.61485,525.43046 523.88674,511.86637 C 523.82858,512.73167 523.75426,513.58215 523.81055,514.50615 C 524.98822,532.13207 549.60565,532.85407 559.04145,521.41018 C 559.99737,522.13129 561.20022,523.01686 562.34604,523.85288 C 566.58,526.94203 573.0521,530.39309 578.23061,529.6595 C 585.00737,530.73948 597.66474,527.75504 603.41004,529.40568 C 605.90711,522.18312 594.17593,526.22493 593.99317,519.91262 C 590.93217,495.1394 592.19622,480.76214 593.81545,452.0906 C 594.09094,447.21263 594.47345,445.9382 594.83077,440.99845 C 596.05446,424.08034 574.31674,429.05211 563.83878,430.10937 C 571.44808,434.26298 584.88245,424.51567 583.61169,452.57287 C 583.80907,467.66523 583.05612,471.83877 583.35787,487.0169 C 582.22708,500.79421 584.58167,515.67059 579.37286,522.22242 C 565.66599,518.63154 572.35104,498.46373 573.15411,484.80864 C 574.33696,464.69595 569.84708,458.54588 551.3506,458.66467 C 527.65505,458.81687 524.4292,493.13779 542.97437,481.13763 C 536.53334,458.47642 567.06984,458.44958 564.34642,479.22448 C 553.97641,483.88567 535.10255,491.08809 527.33877,502.11949 C 527.78914,499.57871 527.94558,496.97986 527.71946,494.35245 C 529.14022,475.52277 514.23226,453.45017 493.09773,462.6751 C 488.3247,464.46163 485.53318,466.20534 482.2848,467.47239 C 482.19537,462.13453 482.78612,449.43519 483.07169,440.74463 C 483.62873,423.79146 462.32921,428.79829 451.85123,429.85554 C 459.46054,434.00915 473.96608,425.19097 472.79174,453.43587 C 472.51226,476.20076 473.13938,499.16029 471.75111,521.76554 C 459.17528,517.57369 465.29177,498.00513 465.93847,484.63095 C 467.26373,464.52641 462.63144,458.36819 444.13495,458.48699 C 420.43941,458.63919 417.19914,492.40022 435.75873,481.12818 C 430.75355,458.46696 459.50984,458.55906 457.00384,479.24987 C 445.81004,484.43597 421.10285,492.56514 417.17875,508.41435 C 416.49956,509.42357 415.89062,510.53741 415.47808,511.86637 C 404.55631,529.38363 376.19276,525.83592 367.98748,506.8914 C 359.78221,487.94688 358.33151,455.72349 378.03894,442.5468 C 395.79845,430.67252 421.72957,438.81069 418.11785,466.40633 C 428.88028,468.69016 425.0859,435.92593 426.87486,427.26653 z M 496.85434,468.4623 C 509.85822,468.4623 516.36606,480.73513 517.05881,495.4439 C 517.77179,513.05938 509.53519,527.01518 492.99621,519.30343 C 476.40938,511.56938 480.90107,487.37062 482.00563,472.29507 C 486.55076,469.98866 492.89682,468.4623 496.85434,468.4623 z M 456.57237,484.19945 C 456.24699,490.11537 456.21306,499.58509 454.13578,507.55261 C 452.05852,515.52011 447.76459,521.90886 440.04834,521.89244 C 428.37901,521.86764 426.56286,512.20543 430.4732,504.96984 C 434.38355,497.73424 443.73196,489.85735 456.57237,484.19945 z M 564.19413,484.2756 C 563.81798,490.14075 563.88558,499.66124 561.82101,507.67951 C 559.75642,515.69779 555.4927,522.08083 546.6548,522.07013 C 534.82396,522.05582 533.46122,512.25619 537.56827,504.94445 C 541.67534,497.63269 551.73445,489.73043 564.19413,484.2756 z "
       id="path4971"
       sodipodi:nodetypes="ccccccssccccscccssccccssccccccsccccscccczsccccscscsssccsssc"
       inkscape:export-filename="/home/cale/built-with-Cabal-light.png"
       inkscape:export-xdpi="15.904792"
       inkscape:export-ydpi="15.904792" />
    <path
       style="font-size:61.18542099px;font-style:italic;font-variant:normal;font-weight:normal;font-stretch:normal;text-align:start;line-height:100%;writing-mode:lr-tb;text-anchor:start;fill:white;fill-opacity:1;stroke:none;stroke-width:1px;stroke-linecap:butt;stroke-linejoin:miter;stroke-opacity:1;font-family:Georgia"
       d="M 310.34178,177.64698 C 310.34175,180.29598 309.86374,182.83541 308.90775,185.26529 C 307.9517,187.67527 306.68696,189.7566 305.11354,191.50931 C 303.50023,193.30185 301.67781,194.71596 299.64629,195.75165 C 297.61472,196.76743 295.46367,197.27531 293.19314,197.27531 C 291.48025,197.27531 289.96655,197.12594 288.65203,196.82718 C 287.35741,196.54834 286.25201,196.15996 285.33583,195.66203 C 284.39972,195.14418 283.62295,194.56659 283.00553,193.92924 C 282.38809,193.27197 281.83041,192.545 281.33249,191.74831 L 289.04042,157.92903 C 289.13999,157.47097 289.21966,157.08259 289.27942,156.76387 C 289.35908,156.42532 289.39891,156.08673 289.39892,155.7481 C 289.39891,155.03112 289.27941,154.4834 289.04042,154.10494 C 288.8014,153.70664 288.46281,153.40788 288.02464,153.20867 C 287.60637,153.02946 287.07857,152.90995 286.44123,152.85016 C 285.80387,152.79045 285.15657,152.72074 284.49931,152.64103 L 284.91757,150.81861 L 296.00145,150.13147 L 296.30021,150.5796 L 291.7591,170.44694 L 291.87861,170.44694 C 293.67113,168.8536 295.24458,167.75816 296.59897,167.16062 C 297.97323,166.54321 299.30767,166.2345 300.60231,166.23447 C 303.62969,166.2345 306.00978,167.27019 307.7426,169.34154 C 309.47536,171.39303 310.34175,174.16151 310.34178,177.64698 M 304.18739,177.79636 C 304.18737,176.74077 304.08778,175.68517 303.88864,174.62954 C 303.70936,173.55404 303.40064,172.65777 302.96249,171.94073 C 302.50437,171.1839 301.87698,170.58639 301.08032,170.14818 C 300.28361,169.71003 299.29772,169.49095 298.12263,169.49092 C 297.42551,169.49095 296.76824,169.61045 296.15083,169.84943 C 295.53338,170.08846 294.89603,170.40713 294.23879,170.80545 C 293.66117,171.16398 293.09354,171.60216 292.53587,172.11998 C 291.9981,172.61793 291.50017,173.06607 291.04209,173.46439 L 287.06862,191.18067 C 287.12836,191.57902 287.30762,192.0172 287.60638,192.4952 C 287.90513,192.97322 288.28355,193.39148 288.74166,193.74998 C 289.29933,194.20808 289.92672,194.55663 290.62383,194.79563 C 291.32091,195.03464 292.08772,195.15414 292.92426,195.15414 C 294.49769,195.15414 295.97156,194.69605 297.34586,193.77986 C 298.74004,192.84376 299.93506,191.58898 300.93094,190.01552 C 302.02636,188.30266 302.84296,186.39061 303.38075,184.27939 C 303.91849,182.16819 304.18737,180.00718 304.18739,177.79636 M 333.61495,192.19645 L 333.4357,192.19645 C 332.51949,192.93338 331.64314,193.61057 330.80664,194.22799 C 329.9701,194.84543 329.14354,195.36327 328.32695,195.78153 C 327.37092,196.25954 326.50452,196.59813 325.72777,196.7973 C 324.95099,197.01639 323.93522,197.12594 322.68045,197.12594 C 320.76839,197.12594 319.28457,196.57821 318.22897,195.48277 C 317.17336,194.36742 316.64555,192.91347 316.64556,191.12092 C 316.64555,190.64292 316.68539,190.07528 316.76506,189.41801 C 316.84472,188.76075 317.03394,187.78481 317.3327,186.49019 L 319.663,177.01959 C 319.86217,176.14326 320.0215,175.36649 320.14101,174.68929 C 320.28043,174.01213 320.35014,173.36482 320.35014,172.74737 C 320.35014,171.63204 320.16092,170.8951 319.78251,170.53657 C 319.42399,170.15817 318.6771,169.96896 317.54183,169.96893 C 317.10365,169.96896 316.54597,170.04863 315.86879,170.20794 C 315.1916,170.3673 314.6638,170.49676 314.28538,170.59632 L 314.73351,168.68428 C 316.28705,167.9872 317.65137,167.4594 318.82648,167.10086 C 320.0215,166.74238 320.97752,166.56313 321.69455,166.5631 C 323.28791,166.56313 324.45306,166.94156 325.19001,167.69838 C 325.94684,168.43534 326.32527,169.49095 326.32528,170.8652 C 326.32527,171.22373 326.28543,171.7117 326.20578,172.32911 C 326.1261,172.94656 326.00659,173.56399 325.84727,174.1814 L 323.18833,185.23541 C 322.98915,186.07194 322.81986,186.85867 322.68045,187.59559 C 322.56093,188.31261 322.50118,188.86033 322.50119,189.23875 C 322.50118,190.57321 322.78998,191.62881 323.36759,192.40558 C 323.94517,193.18235 324.86136,193.57073 326.11615,193.57073 C 327.39083,193.57073 328.6954,193.2421 330.02987,192.58483 C 331.38421,191.90765 332.73858,190.89188 334.09296,189.53751 L 339.32121,167.04111 L 344.51958,166.6826 L 344.87809,167.13074 L 340.42661,186.37069 C 340.22741,187.1873 340.04816,188.01386 339.88885,188.85037 C 339.72948,189.66698 339.64981,190.24457 339.64984,190.58316 C 339.64981,191.71844 339.88882,192.49521 340.36686,192.91346 C 340.86476,193.31181 341.68136,193.51098 342.81667,193.51098 C 343.19506,193.51098 343.73282,193.45123 344.42995,193.33172 C 345.12702,193.21222 345.66478,193.08276 346.04324,192.94334 L 345.5951,194.85538 C 343.94195,195.53257 342.55771,196.04045 341.44238,196.37904 C 340.34691,196.71763 339.33114,196.88693 338.39506,196.88693 C 336.78175,196.88693 335.57677,196.41888 334.7801,195.48277 C 334.00331,194.54667 333.61493,193.45123 333.61495,192.19645 M 364.20766,193.12259 L 363.75953,195.03464 C 361.92714,195.77157 360.46323,196.27946 359.3678,196.5583 C 358.27235,196.85705 357.33624,197.00643 356.55948,197.00643 C 354.96611,197.00643 353.77108,196.59813 352.9744,195.78153 C 352.17771,194.94501 351.77937,193.91928 351.77937,192.70433 C 351.77937,192.24624 351.8192,191.76823 351.89888,191.2703 C 351.97854,190.77238 352.108,190.14499 352.28726,189.38813 L 355.45408,176.69096 C 355.61341,175.99388 355.76279,175.24699 355.90222,174.45028 C 356.06155,173.65362 356.14122,172.97644 356.14122,172.41874 C 356.14122,171.3034 355.952,170.56647 355.57359,170.20794 C 355.21507,169.82954 354.46818,169.64032 353.33291,169.6403 C 352.89473,169.64032 352.30717,169.71003 351.57024,169.84943 C 350.85322,169.98887 350.3055,170.10838 349.92708,170.20794 L 350.37522,168.29589 C 351.92875,167.59882 353.32295,167.08098 354.55781,166.74236 C 355.79267,166.40379 356.76861,166.2345 357.48563,166.23447 C 359.11882,166.2345 360.30389,166.62288 361.04084,167.39962 C 361.77776,168.17642 362.14622,169.22207 362.14624,170.53657 C 362.14622,170.8951 362.10639,171.38307 362.02674,172.00048 C 361.94705,172.61793 361.82755,173.23536 361.66823,173.85277 L 358.47153,186.54994 C 358.27235,187.32672 358.09309,188.09353 357.93377,188.85037 C 357.79434,189.58731 357.72463,190.19478 357.72464,190.67279 C 357.72463,191.80807 357.97359,192.58483 358.47153,193.00309 C 358.98936,193.42135 359.81592,193.63048 360.95121,193.63048 C 361.32962,193.63048 361.86739,193.58069 362.5645,193.4811 C 363.2815,193.38152 363.82922,193.26202 364.20766,193.12259 M 366.32884,154.94146 C 366.32882,156.07677 365.96035,157.07263 365.22344,157.92903 C 364.48649,158.76558 363.5703,159.18384 362.47487,159.1838 C 361.45908,159.18384 360.58273,158.7855 359.84581,157.98878 C 359.10887,157.17221 358.7404,156.24607 358.74041,155.21034 C 358.7404,154.11494 359.10887,153.15892 359.84581,152.34227 C 360.58273,151.52571 361.45908,151.11741 362.47487,151.11737 C 363.61013,151.11741 364.53628,151.5058 365.25331,152.28252 C 365.97031,153.03941 366.32882,153.92573 366.32884,154.94146 M 383.83599,150.5796 L 375.50067,186.54994 C 375.32141,187.3068 375.15211,188.06365 374.99279,188.82049 C 374.83344,189.57735 374.75377,190.19478 374.75378,190.67279 C 374.75377,191.80807 375.00274,192.58483 375.50067,193.00309 C 376.01851,193.42135 376.84507,193.63048 377.98036,193.63048 C 378.37869,193.63048 378.96624,193.58069 379.74302,193.4811 C 380.53969,193.38152 381.13721,193.26202 381.53556,193.12259 L 381.08743,195.03464 C 379.29487,195.75165 377.91063,196.25954 376.93471,196.5583 C 375.97867,196.85705 374.89319,197.00643 373.67826,197.00643 C 372.08488,197.00643 370.86994,196.59813 370.03342,195.78153 C 369.21682,194.94501 368.80852,193.91928 368.80852,192.70433 C 368.80852,192.24624 368.84835,191.76823 368.92802,191.2703 C 369.0276,190.77238 369.15706,190.14499 369.3164,189.38813 L 376.5762,157.92903 C 376.71561,157.31163 376.80523,156.88342 376.84508,156.64437 C 376.90482,156.40541 376.9347,156.10665 376.93471,155.7481 C 376.9347,155.03112 376.81519,154.4834 376.5762,154.10494 C 376.33718,153.70664 375.99859,153.40788 375.56042,153.20867 C 375.14216,153.02946 374.61435,152.90995 373.97701,152.85016 C 373.33966,152.79045 372.69235,152.72074 372.03509,152.64103 L 372.45335,150.81861 L 383.53724,150.13147 L 383.83599,150.5796 M 392.41031,197.00643 C 390.51818,197.00643 389.13394,196.62801 388.25759,195.87116 C 387.38123,195.09439 386.94306,193.98899 386.94306,192.55495 C 386.94306,192.09687 386.97293,191.66865 387.03269,191.2703 C 387.09244,190.85205 387.17211,190.38399 387.27169,189.86614 L 391.90243,169.90918 L 386.58455,169.90918 L 387.21194,167.19049 L 392.64932,167.19049 L 394.74062,158.43691 L 400.11824,158.43691 L 398.0867,167.19049 L 406.42201,167.19049 L 405.79462,169.90918 L 397.51906,169.90918 L 393.69497,186.37069 C 393.5157,187.12755 393.36633,187.86448 393.24683,188.58149 C 393.12732,189.27859 393.06757,189.87611 393.06758,190.37403 C 393.06757,191.46948 393.33645,192.27612 393.87422,192.79396 C 394.43189,193.29189 395.42775,193.54086 396.86179,193.54085 C 397.37962,193.54086 398.1066,193.4811 399.04272,193.3616 C 399.97881,193.22218 400.70578,193.05289 401.22364,192.85371 L 400.71576,195.03464 C 399.32154,195.5724 398.00701,196.03049 396.77217,196.40892 C 395.53729,196.80726 394.08334,197.00643 392.41031,197.00643 M 467.87631,171.76147 C 467.87627,174.88848 467.42813,177.98559 466.53191,181.05281 C 465.63559,184.12006 464.41069,186.81883 462.8572,189.14913 C 461.12437,191.73836 459.16253,193.74003 456.97169,195.15414 C 454.78077,196.56826 452.40067,197.27531 449.8314,197.27531 C 447.95916,197.27531 446.22637,196.75747 444.63302,195.72178 C 443.05955,194.68609 442.00394,193.26202 441.4662,191.44955 C 440.74916,192.14666 440.08194,192.79396 439.46453,193.39147 C 438.867,193.98899 438.08027,194.60642 437.10435,195.24377 C 436.12839,195.88112 435.23212,196.36909 434.41554,196.70768 C 433.61884,197.04627 432.59311,197.21556 431.33834,197.21556 C 429.82463,197.21556 428.56985,196.97656 427.574,196.49855 C 426.59806,196.04045 425.81133,195.43298 425.21382,194.67613 C 424.65614,193.95911 424.2578,193.15247 424.0188,192.2562 C 423.77979,191.34001 423.66028,190.38399 423.66029,189.38813 C 423.66028,189.00971 423.70012,188.5317 423.77979,187.9541 C 423.87937,187.37651 423.97896,186.87858 424.07855,186.46031 L 426.61798,177.01959 C 426.85698,176.12334 427.02628,175.30674 427.12587,174.56979 C 427.24536,173.83288 427.30511,173.2254 427.30512,172.74737 C 427.30511,171.63204 427.1159,170.8951 426.73748,170.53657 C 426.37897,170.15817 425.63208,169.96896 424.49681,169.96893 C 424.05863,169.96896 423.50095,170.04863 422.82377,170.20794 C 422.14658,170.3673 421.61878,170.49676 421.24036,170.59632 L 421.68849,168.68428 C 423.24202,167.9872 424.60635,167.4594 425.78146,167.10086 C 426.97648,166.74238 427.9325,166.56313 428.64953,166.5631 C 430.24289,166.56313 431.40804,166.94156 432.14498,167.69838 C 432.90182,168.43534 433.28025,169.49095 433.28026,170.8652 C 433.28025,171.22373 433.24041,171.7117 433.16076,172.32911 C 433.08108,172.94656 432.96157,173.56399 432.80225,174.1814 L 430.02381,185.20553 C 429.84455,185.94248 429.69517,186.69933 429.57568,187.47609 C 429.45616,188.25286 429.39641,188.83046 429.39642,189.20888 C 429.39641,190.70267 429.69517,191.83794 430.29269,192.61471 C 430.89019,193.37156 431.89601,193.74999 433.31014,193.74998 C 434.5649,193.74999 435.87943,193.41139 437.25373,192.73421 C 438.62799,192.03711 439.88277,191.0313 441.01807,189.71676 L 446.30606,167.04111 L 451.50443,166.6826 L 451.86294,167.13074 L 447.65047,185.32504 C 447.51102,185.92256 447.36164,186.65949 447.20233,187.53584 C 447.06289,188.39228 446.99318,188.93004 446.9932,189.14913 C 446.99318,190.24457 447.16247,191.11097 447.50109,191.74831 C 447.85957,192.38566 448.30771,192.85372 448.8455,193.15247 C 449.36331,193.45123 449.90108,193.64044 450.45879,193.72011 C 451.01643,193.77986 451.5542,193.80974 452.07207,193.80973 C 453.4264,193.80974 454.81064,193.38152 456.22479,192.52508 C 457.65879,191.66865 458.90361,190.55329 459.95926,189.179 C 461.13432,187.64539 462.06047,185.95244 462.7377,184.10013 C 463.41483,182.22794 463.75342,180.21631 463.75347,178.06524 C 463.75342,176.87024 463.58413,175.95405 463.24558,175.31668 C 462.92686,174.65944 462.56836,174.0918 462.17006,173.61376 C 461.77167,173.11586 461.40321,172.59802 461.06466,172.06023 C 460.74594,171.50257 460.5866,170.72581 460.58665,169.72992 C 460.5866,168.59468 460.96503,167.72828 461.72192,167.13074 C 462.47873,166.53326 463.27541,166.2345 464.11198,166.23447 C 465.28704,166.2345 466.20323,166.71251 466.86054,167.6685 C 467.53768,168.60463 467.87627,169.96896 467.87631,171.76147 M 486.21999,193.12259 L 485.77186,195.03464 C 483.93947,195.77157 482.47556,196.27946 481.38013,196.5583 C 480.28468,196.85705 479.34857,197.00643 478.57181,197.00643 C 476.97844,197.00643 475.78341,196.59813 474.98673,195.78153 C 474.19004,194.94501 473.7917,193.91928 473.7917,192.70433 C 473.7917,192.24624 473.83153,191.76823 473.91121,191.2703 C 473.99087,190.77238 474.12033,190.14499 474.29959,189.38813 L 477.46641,176.69096 C 477.62574,175.99388 477.77512,175.24699 477.91455,174.45028 C 478.07388,173.65362 478.15355,172.97644 478.15355,172.41874 C 478.15355,171.3034 477.96433,170.56647 477.58592,170.20794 C 477.2274,169.82954 476.48051,169.64032 475.34524,169.6403 C 474.90706,169.64032 474.3195,169.71003 473.58257,169.84943 C 472.86555,169.98887 472.31783,170.10838 471.93941,170.20794 L 472.38754,168.29589 C 473.94108,167.59882 475.33527,167.08098 476.57014,166.74236 C 477.805,166.40379 478.78093,166.2345 479.49796,166.23447 C 481.13115,166.2345 482.31622,166.62288 483.05317,167.39962 C 483.79009,168.17642 484.15855,169.22207 484.15857,170.53657 C 484.15855,170.8951 484.11872,171.38307 484.03907,172.00048 C 483.95938,172.61793 483.83988,173.23536 483.68056,173.85277 L 480.48386,186.54994 C 480.28468,187.32672 480.10542,188.09353 479.9461,188.85037 C 479.80667,189.58731 479.73696,190.19478 479.73697,190.67279 C 479.73696,191.80807 479.98592,192.58483 480.48386,193.00309 C 481.00169,193.42135 481.82825,193.63048 482.96354,193.63048 C 483.34195,193.63048 483.87971,193.58069 484.57683,193.4811 C 485.29383,193.38152 485.84155,193.26202 486.21999,193.12259 M 488.34117,154.94146 C 488.34115,156.07677 487.97268,157.07263 487.23576,157.92903 C 486.49881,158.76558 485.58263,159.18384 484.4872,159.1838 C 483.47141,159.18384 482.59506,158.7855 481.85814,157.98878 C 481.12119,157.17221 480.75273,156.24607 480.75274,155.21034 C 480.75273,154.11494 481.12119,153.15892 481.85814,152.34227 C 482.59506,151.52571 483.47141,151.11741 484.4872,151.11737 C 485.62246,151.11741 486.54861,151.5058 487.26564,152.28252 C 487.98264,153.03941 488.34115,153.92573 488.34117,154.94146 M 496.97525,197.00643 C 495.08311,197.00643 493.69887,196.62801 492.82253,195.87116 C 491.94617,195.09439 491.50799,193.98899 491.508,192.55495 C 491.50799,192.09687 491.53787,191.66865 491.59762,191.2703 C 491.65737,190.85205 491.73704,190.38399 491.83663,189.86614 L 496.46736,169.90918 L 491.14949,169.90918 L 491.77688,167.19049 L 497.21425,167.19049 L 499.30555,158.43691 L 504.68318,158.43691 L 502.65163,167.19049 L 510.98695,167.19049 L 510.35956,169.90918 L 502.08399,169.90918 L 498.2599,186.37069 C 498.08064,187.12755 497.93126,187.86448 497.81177,188.58149 C 497.69225,189.27859 497.6325,189.87611 497.63251,190.37403 C 497.6325,191.46948 497.90138,192.27612 498.43916,192.79396 C 498.99683,193.29189 499.99268,193.54086 501.42673,193.54085 C 501.94456,193.54086 502.67153,193.4811 503.60765,193.3616 C 504.54374,193.22218 505.27071,193.05289 505.78858,192.85371 L 505.28069,195.03464 C 503.88648,195.5724 502.57195,196.03049 501.3371,196.40892 C 500.10222,196.80726 498.64828,197.00643 496.97525,197.00643 M 541.87841,192.91346 L 541.43027,194.82551 C 539.6377,195.54252 538.2435,196.06037 537.24767,196.37904 C 536.25179,196.71763 535.24598,196.88693 534.23023,196.88693 C 532.63683,196.88693 531.44181,196.47863 530.64515,195.66203 C 529.84844,194.82551 529.4501,193.79978 529.45012,192.58483 C 529.4501,192.14666 529.48993,191.66865 529.56962,191.1508 C 529.64927,190.61304 529.77873,189.98565 529.958,189.26863 L 532.88582,178.12499 C 533.10489,177.26858 533.27418,176.49181 533.39371,175.79469 C 533.5331,175.09761 533.60281,174.53993 533.60284,174.12165 C 533.60281,172.78723 533.28414,171.73162 532.64682,170.95483 C 532.00945,170.17809 531.06338,169.7897 529.80863,169.78968 C 528.53391,169.7897 527.14967,170.198 525.6559,171.01458 C 524.18202,171.83121 522.77787,172.97644 521.44343,174.45028 L 516.39444,196.37904 L 510.83756,196.37904 L 519.71064,157.92903 C 519.81022,157.47097 519.88988,157.08259 519.94965,156.76387 C 520.0293,156.44524 520.06914,156.10665 520.06915,155.7481 C 520.06914,155.03112 519.94964,154.4834 519.71064,154.10494 C 519.47163,153.70664 519.13303,153.40788 518.69487,153.20867 C 518.31643,153.02946 517.79859,152.90995 517.14133,152.85016 C 516.48406,152.79045 515.82679,152.72074 515.16954,152.64103 L 515.5878,150.81861 L 526.67168,150.13147 L 526.97043,150.5796 L 522.19032,171.25359 L 522.30983,171.25359 C 524.36128,169.60049 526.19365,168.35567 527.80695,167.51912 C 529.42022,166.66272 531.2526,166.2345 533.30408,166.23447 C 535.2161,166.2345 536.70988,166.79218 537.78544,167.90751 C 538.86093,169.00298 539.39869,170.44697 539.39872,172.23948 C 539.39869,172.59802 539.33894,173.23536 539.21947,174.15153 C 539.11985,175.06774 538.95056,175.97397 538.71158,176.87022 L 536.20202,186.46031 C 536.04266,187.09767 535.87336,187.8346 535.69414,188.67111 C 535.51486,189.48772 535.42523,190.12507 535.42526,190.58316 C 535.42523,191.71844 535.67419,192.49521 536.17215,192.91346 C 536.67005,193.31181 537.48665,193.51098 538.62196,193.51098 C 539.00035,193.51098 539.53811,193.45123 540.23524,193.33172 C 540.95223,193.19231 541.49995,193.05289 541.87841,192.91346"
       id="text1989" />
    <path
       style="font-size:61.18542099px;font-style:italic;font-variant:normal;font-weight:normal;font-stretch:normal;text-align:start;line-height:100%;writing-mode:lr-tb;text-anchor:start;fill:black;fill-opacity:1;stroke:none;stroke-width:1px;stroke-linecap:butt;stroke-linejoin:miter;stroke-opacity:1;font-family:Georgia"
       d="M 309.56539,396.10543 C 309.56536,398.75443 309.08734,401.29386 308.13135,403.72374 C 307.1753,406.13372 305.91057,408.21506 304.33714,409.96776 C 302.72383,411.7603 300.90141,413.17442 298.86989,414.2101 C 296.83832,415.22588 294.68727,415.73376 292.41674,415.73376 C 290.70385,415.73376 289.19015,415.58439 287.87563,415.28563 C 286.58101,415.00679 285.47561,414.61841 284.55943,414.12048 C 283.62332,413.60263 282.84655,413.02504 282.22913,412.38769 C 281.61169,411.73042 281.05401,411.00345 280.55609,410.20676 L 288.26402,376.38748 C 288.36359,375.92942 288.44326,375.54104 288.50302,375.22232 C 288.58268,374.88377 288.62251,374.54518 288.62253,374.20655 C 288.62251,373.48957 288.50301,372.94185 288.26402,372.56339 C 288.025,372.16509 287.68641,371.86633 287.24824,371.66712 C 286.82998,371.48791 286.30217,371.3684 285.66483,371.30861 C 285.02748,371.2489 284.38017,371.17919 283.72291,371.09948 L 284.14117,369.27706 L 295.22505,368.58992 L 295.52381,369.03806 L 290.98271,388.90539 L 291.10221,388.90539 C 292.89473,387.31205 294.46819,386.21661 295.82257,385.61907 C 297.19683,385.00166 298.53128,384.69295 299.82591,384.69292 C 302.85329,384.69295 305.23338,385.72864 306.9662,387.79999 C 308.69896,389.85148 309.56536,392.61996 309.56539,396.10543 M 303.41099,396.25481 C 303.41097,395.19922 303.31138,394.14362 303.11224,393.08799 C 302.93296,392.01249 302.62424,391.11622 302.18609,390.39918 C 301.72797,389.64235 301.10058,389.04484 300.30392,388.60663 C 299.50722,388.16848 298.52132,387.9494 297.34623,387.94937 C 296.64911,387.9494 295.99185,388.0689 295.37443,388.30788 C 294.75698,388.54691 294.11964,388.86558 293.46239,389.2639 C 292.88478,389.62243 292.31714,390.06061 291.75947,390.57843 C 291.2217,391.07638 290.72377,391.52452 290.26569,391.92284 L 286.29222,409.63912 C 286.35196,410.03747 286.53122,410.47565 286.82998,410.95365 C 287.12873,411.43167 287.50716,411.84993 287.96526,412.20843 C 288.52293,412.66653 289.15032,413.01508 289.84743,413.25408 C 290.54452,413.49309 291.31132,413.61259 292.14786,413.61259 C 293.72129,413.61259 295.19516,413.1545 296.56946,412.23831 C 297.96364,411.30221 299.15867,410.04743 300.15454,408.47397 C 301.24996,406.76111 302.06656,404.84906 302.60435,402.73784 C 303.14209,400.62664 303.41097,398.46563 303.41099,396.25481 M 332.83855,410.6549 L 332.6593,410.6549 C 331.74309,411.39183 330.86674,412.06902 330.03024,412.68644 C 329.1937,413.30388 328.36714,413.82172 327.55056,414.23998 C 326.59452,414.71799 325.72812,415.05658 324.95137,415.25575 C 324.17459,415.47484 323.15882,415.58439 321.90405,415.58439 C 319.992,415.58439 318.50817,415.03666 317.45257,413.94122 C 316.39696,412.82587 315.86916,411.37192 315.86916,409.57937 C 315.86916,409.10137 315.90899,408.53373 315.98866,407.87646 C 316.06833,407.2192 316.25754,406.24326 316.5563,404.94864 L 318.8866,395.47804 C 319.08577,394.60171 319.24511,393.82494 319.36462,393.14774 C 319.50403,392.47058 319.57374,391.82327 319.57375,391.20582 C 319.57374,390.09049 319.38453,389.35355 319.00611,388.99502 C 318.64759,388.61662 317.9007,388.42741 316.76543,388.42738 C 316.32725,388.42741 315.76957,388.50708 315.09239,388.66639 C 314.41521,388.82575 313.8874,388.95521 313.50898,389.05477 L 313.95712,387.14273 C 315.51065,386.44565 316.87497,385.91785 318.05009,385.55931 C 319.24511,385.20084 320.20113,385.02158 320.91815,385.02155 C 322.51151,385.02158 323.67666,385.40001 324.41361,386.15683 C 325.17045,386.89379 325.54887,387.9494 325.54888,389.32365 C 325.54887,389.68218 325.50904,390.17015 325.42938,390.78756 C 325.3497,391.40501 325.2302,392.02245 325.07087,392.63985 L 322.41194,403.69386 C 322.21275,404.53039 322.04346,405.31712 321.90405,406.05404 C 321.78454,406.77106 321.72479,407.31879 321.7248,407.6972 C 321.72479,409.03166 322.01358,410.08726 322.59119,410.86403 C 323.16878,411.6408 324.08496,412.02918 325.33975,412.02918 C 326.61444,412.02918 327.91901,411.70055 329.25347,411.04328 C 330.60782,410.3661 331.96218,409.35033 333.31656,407.99596 L 338.54481,385.49956 L 343.74318,385.14105 L 344.10169,385.58919 L 339.65021,404.82914 C 339.45101,405.64575 339.27176,406.47231 339.11245,407.30882 C 338.95309,408.12543 338.87342,408.70302 338.87344,409.04161 C 338.87342,410.17689 339.11242,410.95366 339.59046,411.37191 C 340.08836,411.77026 340.90496,411.96943 342.04027,411.96943 C 342.41866,411.96943 342.95642,411.90968 343.65356,411.79017 C 344.35062,411.67067 344.88838,411.54121 345.26684,411.40179 L 344.81871,413.31383 C 343.16555,413.99102 341.78131,414.4989 340.66599,414.83749 C 339.57052,415.17608 338.55474,415.34538 337.61866,415.34538 C 336.00535,415.34538 334.80037,414.87733 334.00371,413.94122 C 333.22692,413.00512 332.83853,411.90968 332.83855,410.6549 M 363.43126,411.58104 L 362.98313,413.49309 C 361.15074,414.23002 359.68683,414.73791 358.5914,415.01675 C 357.49595,415.3155 356.55985,415.46488 355.78309,415.46488 C 354.18971,415.46488 352.99468,415.05658 352.198,414.23998 C 351.40131,413.40346 351.00297,412.37773 351.00298,411.16278 C 351.00297,410.70469 351.04281,410.22668 351.12248,409.72875 C 351.20214,409.23083 351.3316,408.60344 351.51086,407.84658 L 354.67769,395.14941 C 354.83702,394.45233 354.98639,393.70544 355.12582,392.90873 C 355.28515,392.11207 355.36482,391.43489 355.36483,390.87719 C 355.36482,389.76185 355.17561,389.02492 354.79719,388.66639 C 354.43867,388.28799 353.69178,388.09877 352.55651,388.09875 C 352.11833,388.09877 351.53078,388.16848 350.79385,388.30788 C 350.07683,388.44732 349.52911,388.56683 349.15068,388.66639 L 349.59882,386.75434 C 351.15235,386.05727 352.54655,385.53943 353.78142,385.20081 C 355.01627,384.86224 355.99221,384.69295 356.70923,384.69292 C 358.34243,384.69295 359.52749,385.08133 360.26444,385.85807 C 361.00136,386.63487 361.36983,387.68052 361.36984,388.99502 C 361.36983,389.35355 361.32999,389.84152 361.25034,390.45893 C 361.17066,391.07638 361.05115,391.69381 360.89183,392.31122 L 357.69513,405.00839 C 357.49595,405.78517 357.3167,406.55198 357.15737,407.30882 C 357.01794,408.04576 356.94823,408.65323 356.94824,409.13124 C 356.94823,410.26652 357.19719,411.04328 357.69513,411.46154 C 358.21297,411.8798 359.03953,412.08893 360.17481,412.08893 C 360.55323,412.08893 361.09099,412.03914 361.7881,411.93955 C 362.5051,411.83997 363.05282,411.72047 363.43126,411.58104 M 365.55244,373.39991 C 365.55242,374.53522 365.18395,375.53108 364.44704,376.38748 C 363.71009,377.22403 362.7939,377.64229 361.69847,377.64226 C 360.68269,377.64229 359.80633,377.24395 359.06941,376.44723 C 358.33247,375.63066 357.964,374.70452 357.96401,373.66879 C 357.964,372.57339 358.33247,371.61737 359.06941,370.80072 C 359.80633,369.98416 360.68269,369.57586 361.69847,369.57582 C 362.83373,369.57586 363.75988,369.96425 364.47691,370.74097 C 365.19391,371.49786 365.55242,372.38418 365.55244,373.39991 M 383.05959,369.03806 L 374.72428,405.00839 C 374.54501,405.76525 374.37572,406.5221 374.21639,407.27894 C 374.05704,408.0358 373.97737,408.65323 373.97738,409.13124 C 373.97737,410.26652 374.22634,411.04328 374.72428,411.46154 C 375.24211,411.8798 376.06867,412.08893 377.20396,412.08893 C 377.60229,412.08893 378.18984,412.03914 378.96662,411.93955 C 379.76329,411.83997 380.36081,411.72047 380.75917,411.58104 L 380.31103,413.49309 C 378.51848,414.2101 377.13424,414.71799 376.15831,415.01675 C 375.20228,415.3155 374.11679,415.46488 372.90186,415.46488 C 371.30848,415.46488 370.09354,415.05658 369.25702,414.23998 C 368.44042,413.40346 368.03212,412.37773 368.03212,411.16278 C 368.03212,410.70469 368.07195,410.22668 368.15162,409.72875 C 368.25121,409.23083 368.38067,408.60344 368.54001,407.84658 L 375.7998,376.38748 C 375.93921,375.77008 376.02884,375.34187 376.06868,375.10282 C 376.12842,374.86386 376.1583,374.5651 376.15831,374.20655 C 376.1583,373.48957 376.0388,372.94185 375.7998,372.56339 C 375.56078,372.16509 375.22219,371.86633 374.78403,371.66712 C 374.36576,371.48791 373.83795,371.3684 373.20062,371.30861 C 372.56326,371.2489 371.91595,371.17919 371.2587,371.09948 L 371.67696,369.27706 L 382.76084,368.58992 L 383.05959,369.03806 M 391.63392,415.46488 C 389.74178,415.46488 388.35754,415.08646 387.48119,414.32961 C 386.60484,413.55284 386.16666,412.44744 386.16666,411.01341 C 386.16666,410.55532 386.19654,410.1271 386.25629,409.72875 C 386.31604,409.3105 386.39571,408.84244 386.4953,408.32459 L 391.12603,388.36763 L 385.80816,388.36763 L 386.43555,385.64894 L 391.87292,385.64894 L 393.96422,376.89536 L 399.34185,376.89536 L 397.3103,385.64894 L 405.64562,385.64894 L 405.01823,388.36763 L 396.74266,388.36763 L 392.91857,404.82914 C 392.73931,405.586 392.58993,406.32293 392.47044,407.03994 C 392.35092,407.73704 392.29117,408.33456 392.29118,408.83248 C 392.29117,409.92793 392.56005,410.73457 393.09783,411.25241 C 393.65549,411.75034 394.65135,411.99931 396.08539,411.9993 C 396.60323,411.99931 397.3302,411.93955 398.26632,411.82005 C 399.20241,411.68063 399.92938,411.51134 400.44725,411.31216 L 399.93936,413.49309 C 398.54514,414.03085 397.23062,414.48894 395.99577,414.86737 C 394.76089,415.26571 393.30694,415.46488 391.63392,415.46488 M 467.09992,390.21992 C 467.09987,393.34693 466.65173,396.44404 465.75551,399.51126 C 464.85919,402.57851 463.63429,405.27728 462.0808,407.60758 C 460.34797,410.19681 458.38613,412.19848 456.19529,413.61259 C 454.00437,415.02671 451.62427,415.73376 449.055,415.73376 C 447.18276,415.73376 445.44997,415.21592 443.85663,414.18023 C 442.28315,413.14454 441.22754,411.72047 440.6898,409.908 C 439.97277,410.60511 439.30554,411.25241 438.68813,411.84992 C 438.0906,412.44744 437.30387,413.06487 436.32795,413.70222 C 435.352,414.33957 434.45573,414.82754 433.63914,415.16613 C 432.84244,415.50472 431.81671,415.67401 430.56194,415.67401 C 429.04823,415.67401 427.79345,415.43501 426.79761,414.957 C 425.82166,414.4989 425.03493,413.89143 424.43743,413.13458 C 423.87974,412.41757 423.4814,411.61092 423.2424,410.71465 C 423.00339,409.79847 422.88389,408.84244 422.88389,407.84658 C 422.88389,407.46816 422.92372,406.99015 423.00339,406.41255 C 423.10297,405.83496 423.20256,405.33703 423.30215,404.91876 L 425.84158,395.47804 C 426.08058,394.58179 426.24988,393.76519 426.34947,393.02824 C 426.46897,392.29133 426.52872,391.68385 426.52872,391.20582 C 426.52872,390.09049 426.3395,389.35355 425.96109,388.99502 C 425.60257,388.61662 424.85568,388.42741 423.72041,388.42738 C 423.28223,388.42741 422.72455,388.50708 422.04737,388.66639 C 421.37019,388.82575 420.84238,388.95521 420.46396,389.05477 L 420.91209,387.14273 C 422.46563,386.44565 423.82995,385.91785 425.00506,385.55931 C 426.20008,385.20084 427.15611,385.02158 427.87313,385.02155 C 429.46649,385.02158 430.63164,385.40001 431.36859,386.15683 C 432.12542,386.89379 432.50385,387.9494 432.50386,389.32365 C 432.50385,389.68218 432.46402,390.17015 432.38436,390.78756 C 432.30468,391.40501 432.18518,392.02245 432.02585,392.63985 L 429.24741,403.66398 C 429.06815,404.40093 428.91877,405.15778 428.79928,405.93454 C 428.67976,406.71131 428.62001,407.28891 428.62002,407.66733 C 428.62001,409.16112 428.91877,410.29639 429.51629,411.07316 C 430.1138,411.83001 431.11961,412.20844 432.53374,412.20843 C 433.7885,412.20844 435.10303,411.86984 436.47733,411.19266 C 437.85159,410.49556 439.10637,409.48975 440.24167,408.17521 L 445.52967,385.49956 L 450.72804,385.14105 L 451.08655,385.58919 L 446.87407,403.78349 C 446.73462,404.38101 446.58525,405.11794 446.42594,405.99429 C 446.28649,406.85073 446.21678,407.3885 446.21681,407.60758 C 446.21678,408.70302 446.38607,409.56942 446.72469,410.20676 C 447.08317,410.84411 447.53131,411.31217 448.0691,411.61092 C 448.58692,411.90968 449.12468,412.09889 449.68239,412.17856 C 450.24004,412.23831 450.7778,412.26819 451.29567,412.26818 C 452.65001,412.26819 454.03424,411.83997 455.4484,410.98353 C 456.88239,410.1271 458.12721,409.01174 459.18286,407.63745 C 460.35793,406.10384 461.28407,404.41089 461.9613,402.55858 C 462.63844,400.68639 462.97703,398.67476 462.97707,396.52369 C 462.97703,395.32869 462.80773,394.4125 462.46918,393.77513 C 462.15047,393.11789 461.79196,392.55025 461.39366,392.07222 C 460.99527,391.57431 460.62681,391.05647 460.28826,390.51868 C 459.96954,389.96102 459.81021,389.18426 459.81025,388.18837 C 459.81021,387.05313 460.18863,386.18673 460.94552,385.58919 C 461.70233,384.99171 462.49902,384.69295 463.33558,384.69292 C 464.51064,384.69295 465.42683,385.17096 466.08414,386.12695 C 466.76128,387.06308 467.09987,388.42741 467.09992,390.21992 M 485.44359,411.58104 L 484.99546,413.49309 C 483.16307,414.23002 481.69916,414.73791 480.60373,415.01675 C 479.50828,415.3155 478.57217,415.46488 477.79542,415.46488 C 476.20204,415.46488 475.00701,415.05658 474.21033,414.23998 C 473.41364,413.40346 473.0153,412.37773 473.0153,411.16278 C 473.0153,410.70469 473.05514,410.22668 473.13481,409.72875 C 473.21447,409.23083 473.34393,408.60344 473.52319,407.84658 L 476.69002,395.14941 C 476.84934,394.45233 476.99872,393.70544 477.13815,392.90873 C 477.29748,392.11207 477.37715,391.43489 477.37716,390.87719 C 477.37715,389.76185 477.18794,389.02492 476.80952,388.66639 C 476.451,388.28799 475.70411,388.09877 474.56884,388.09875 C 474.13066,388.09877 473.5431,388.16848 472.80617,388.30788 C 472.08916,388.44732 471.54143,388.56683 471.16301,388.66639 L 471.61115,386.75434 C 473.16468,386.05727 474.55888,385.53943 475.79374,385.20081 C 477.0286,384.86224 478.00454,384.69295 478.72156,384.69292 C 480.35476,384.69295 481.53982,385.08133 482.27677,385.85807 C 483.01369,386.63487 483.38216,387.68052 483.38217,388.99502 C 483.38216,389.35355 483.34232,389.84152 483.26267,390.45893 C 483.18299,391.07638 483.06348,391.69381 482.90416,392.31122 L 479.70746,405.00839 C 479.50828,405.78517 479.32902,406.55198 479.1697,407.30882 C 479.03027,408.04576 478.96056,408.65323 478.96057,409.13124 C 478.96056,410.26652 479.20952,411.04328 479.70746,411.46154 C 480.22529,411.8798 481.05185,412.08893 482.18714,412.08893 C 482.56555,412.08893 483.10332,412.03914 483.80043,411.93955 C 484.51743,411.83997 485.06515,411.72047 485.44359,411.58104 M 487.56477,373.39991 C 487.56475,374.53522 487.19628,375.53108 486.45937,376.38748 C 485.72242,377.22403 484.80623,377.64229 483.7108,377.64226 C 482.69502,377.64229 481.81866,377.24395 481.08174,376.44723 C 480.3448,375.63066 479.97633,374.70452 479.97634,373.66879 C 479.97633,372.57339 480.3448,371.61737 481.08174,370.80072 C 481.81866,369.98416 482.69502,369.57586 483.7108,369.57582 C 484.84606,369.57586 485.77221,369.96425 486.48924,370.74097 C 487.20624,371.49786 487.56475,372.38418 487.56477,373.39991 M 496.19885,415.46488 C 494.30672,415.46488 492.92248,415.08646 492.04613,414.32961 C 491.16977,413.55284 490.73159,412.44744 490.7316,411.01341 C 490.73159,410.55532 490.76147,410.1271 490.82123,409.72875 C 490.88097,409.3105 490.96064,408.84244 491.06023,408.32459 L 495.69096,388.36763 L 490.37309,388.36763 L 491.00048,385.64894 L 496.43786,385.64894 L 498.52915,376.89536 L 503.90678,376.89536 L 501.87523,385.64894 L 510.21055,385.64894 L 509.58316,388.36763 L 501.30759,388.36763 L 497.4835,404.82914 C 497.30424,405.586 497.15486,406.32293 497.03537,407.03994 C 496.91586,407.73704 496.85611,408.33456 496.85612,408.83248 C 496.85611,409.92793 497.12499,410.73457 497.66276,411.25241 C 498.22043,411.75034 499.21628,411.99931 500.65033,411.9993 C 501.16816,411.99931 501.89513,411.93955 502.83125,411.82005 C 503.76734,411.68063 504.49432,411.51134 505.01218,411.31216 L 504.50429,413.49309 C 503.11008,414.03085 501.79555,414.48894 500.5607,414.86737 C 499.32583,415.26571 497.87188,415.46488 496.19885,415.46488 M 541.10201,411.37191 L 540.65387,413.28396 C 538.8613,414.00098 537.4671,414.51882 536.47128,414.83749 C 535.47539,415.17608 534.46958,415.34538 533.45383,415.34538 C 531.86044,415.34538 530.66541,414.93708 529.86875,414.12048 C 529.07204,413.28396 528.6737,412.25823 528.67372,411.04328 C 528.6737,410.60511 528.71353,410.1271 528.79322,409.60925 C 528.87287,409.07149 529.00233,408.4441 529.18161,407.72708 L 532.10942,396.58344 C 532.32849,395.72703 532.49778,394.95026 532.61731,394.25314 C 532.75671,393.55606 532.82642,392.99838 532.82644,392.5801 C 532.82642,391.24568 532.50774,390.19007 531.87042,389.41328 C 531.23305,388.63654 530.28699,388.24815 529.03223,388.24813 C 527.75751,388.24815 526.37327,388.65645 524.87951,389.47303 C 523.40562,390.28966 522.00147,391.43489 520.66703,392.90873 L 515.61804,414.83749 L 510.06116,414.83749 L 518.93424,376.38748 C 519.03382,375.92942 519.11349,375.54104 519.17325,375.22232 C 519.25291,374.90369 519.29274,374.5651 519.29275,374.20655 C 519.29274,373.48957 519.17324,372.94185 518.93424,372.56339 C 518.69523,372.16509 518.35664,371.86633 517.91847,371.66712 C 517.54004,371.48791 517.02219,371.3684 516.36493,371.30861 C 515.70766,371.2489 515.0504,371.17919 514.39314,371.09948 L 514.8114,369.27706 L 525.89528,368.58992 L 526.19404,369.03806 L 521.41393,389.71204 L 521.53343,389.71204 C 523.58488,388.05894 525.41725,386.81412 527.03056,385.97757 C 528.64382,385.12117 530.4762,384.69295 532.52768,384.69292 C 534.4397,384.69295 535.93349,385.25063 537.00904,386.36596 C 538.08453,387.46143 538.6223,388.90542 538.62233,390.69793 C 538.6223,391.05647 538.56254,391.69381 538.44307,392.60998 C 538.34346,393.52619 538.17416,394.43242 537.93518,395.32867 L 535.42563,404.91876 C 535.26626,405.55612 535.09697,406.29305 534.91774,407.12956 C 534.73846,407.94617 534.64883,408.58352 534.64886,409.04161 C 534.64883,410.17689 534.8978,410.95366 535.39575,411.37191 C 535.89365,411.77026 536.71025,411.96943 537.84556,411.96943 C 538.22395,411.96943 538.76172,411.90968 539.45885,411.79017 C 540.17583,411.65076 540.72355,411.51134 541.10201,411.37191"
       id="text2009" />
  </g>
</svg>
