<?xml version="1.0" encoding="UTF-8" standalone="no"?>
<!-- Created with Inkscape (http://www.inkscape.org/) -->
<svg
   xmlns:dc="http://purl.org/dc/elements/1.1/"
   xmlns:cc="http://web.resource.org/cc/"
   xmlns:rdf="http://www.w3.org/1999/02/22-rdf-syntax-ns#"
   xmlns:svg="http://www.w3.org/2000/svg"
   xmlns="http://www.w3.org/2000/svg"
   xmlns:sodipodi="http://inkscape.sourceforge.net/DTD/sodipodi-0.dtd"
   xmlns:inkscape="http://www.inkscape.org/namespaces/inkscape"
   width="744.09448819"
   height="1052.3622047"
   id="svg2"
   sodipodi:version="0.32"
   inkscape:version="0.42.2"
   inkscape:export-filename="Cabal-With-Text-Light-Dark.png"
   inkscape:export-xdpi="90.000000"
   inkscape:export-ydpi="90.000000"
   sodipodi:docbase="/home/cale"
   sodipodi:docname="Cabal.svg">
  <defs
     id="defs4" />
  <sodipodi:namedview
     id="base"
     pagecolor="#ffffff"
     bordercolor="#666666"
     borderopacity="1.0"
     inkscape:pageopacity="0.0"
     inkscape:pageshadow="2"
     inkscape:zoom="1.0000000"
     inkscape:cx="506.92330"
     inkscape:cy="608.66875"
     inkscape:document-units="px"
     inkscape:current-layer="layer1"
     showguides="true"
     inkscape:guide-bbox="true"
     inkscape:window-width="1061"
     inkscape:window-height="911"
     inkscape:window-x="48"
     inkscape:window-y="54" />
  <metadata
     id="metadata7">
    <rdf:RDF>
      <cc:Work
         rdf:about="">
        <dc:format>image/svg+xml</dc:format>
        <dc:type
           rdf:resource="http://purl.org/dc/dcmitype/StillImage" />
      </cc:Work>
    </rdf:RDF>
  </metadata>
  <g
     inkscape:label="Layer 1"
     inkscape:groupmode="layer"
     id="layer1">
    <path
       style="font-size:202.72231px;font-style:normal;font-variant:normal;font-weight:normal;font-stretch:normal;text-align:start;line-height:125.00000%;writing-mode:lr-tb;text-anchor:start;fill:#ffffff;fill-opacity:1.0000000;stroke:none;stroke-width:1.0000000px;stroke-linecap:butt;stroke-linejoin:miter;stroke-opacity:1.0000000;font-family:Georgia"
       d="M 393.47699,388.26261 C 383.14999,395.38070 365.13271,393.47983 351.07074,393.10636 C 321.12042,390.36663 298.93676,419.79786 297.63324,448.98136 C 293.35724,479.89751 315.85738,514.95719 348.50824,514.04386 C 361.32393,514.54019 373.13784,509.66433 381.97699,500.88761 C 387.75919,517.14247 413.65059,516.73941 424.19569,503.95011 C 425.23879,504.70583 426.53769,505.86127 429.62069,507.89659 C 435.78659,511.96724 443.64639,516.12458 450.82069,513.20011 C 453.88709,511.95017 459.96409,504.78862 466.03949,508.76261 C 483.98769,519.42895 503.96159,509.11847 512.91449,492.41886 C 512.84289,493.48419 512.75139,494.53127 512.82069,495.66886 C 514.27059,517.36926 544.57869,518.25816 556.19569,504.16886 C 557.37259,505.05665 558.85349,506.14695 560.26419,507.17621 C 565.47689,510.97947 573.44509,515.22828 579.82069,514.32511 C 588.16399,515.65475 603.74729,511.98042 610.82069,514.01261 C 613.89499,505.12047 599.70199,510.09660 599.47699,502.32511 C 595.70839,471.82522 597.38969,454.13261 599.25819,418.82511 C 599.72239,412.82767 600.15669,414.43248 600.50819,405.16886 C 601.30019,384.30050 575.00209,390.46096 562.10199,391.76261 C 571.47029,396.87638 588.01019,384.87584 586.44569,419.41886 C 586.68869,438.00002 585.76169,443.13834 586.13319,461.82511 C 584.74099,478.78721 587.63989,497.10249 581.22699,505.16886 C 564.35159,500.74790 572.75729,475.92803 573.57069,459.10636 C 575.20229,434.35437 569.49919,426.77261 546.72699,426.91886 C 517.55389,427.10624 512.06459,469.67158 531.91449,455.79386 C 525.39874,426.83354 566.07996,426.65405 562.72699,452.23136 C 549.95979,457.97004 526.72299,466.83740 517.16449,480.41886 C 517.71899,477.29073 517.91159,474.09112 517.63319,470.85636 C 519.38239,447.67395 499.96759,420.85251 475.00819,431.85636 C 469.13179,434.05586 465.69499,436.20265 461.69569,437.76261 C 461.58559,431.19082 462.31289,415.55585 462.66449,404.85636 C 463.35029,383.98423 437.12709,390.14846 424.22699,391.45011 C 433.59529,396.56388 451.45399,385.70725 450.00819,420.48136 C 449.66409,448.50866 450.43619,476.77559 448.72699,504.60636 C 433.24409,499.44550 440.77449,475.35340 441.57069,458.88761 C 443.20229,434.13562 437.49919,426.55385 414.72699,426.70011 C 385.55389,426.88749 380.06459,469.45285 399.91449,455.57511 C 393.75229,426.61479 433.65599,426.78883 430.57069,452.26261 C 416.78929,458.64756 386.37069,468.65588 381.53949,488.16886 C 380.70329,489.41137 379.95359,490.78269 379.44569,492.41886 C 365.99920,513.98546 331.07902,509.61767 320.97699,486.29386 C 310.87496,462.97005 309.08890,423.29779 333.35199,407.07511 C 355.21684,392.45594 387.14229,402.47536 382.69569,436.45011 C 395.94599,439.26188 391.27449,398.92375 393.47699,388.26261 z M 477.63319,439.98136 C 492.23249,440.74083 502.65529,454.09120 503.50819,472.20011 C 504.38599,493.88765 496.09029,509.25688 474.88319,501.57511 C 455.30699,490.24056 459.99209,462.26058 461.35199,443.70011 C 466.94779,440.86055 472.76679,439.72820 477.63319,439.98136 z M 430.03949,458.35636 C 429.63889,465.63982 429.59711,477.29860 427.03965,487.10791 C 424.48219,496.91721 418.44567,504.78282 408.94569,504.76261 C 394.57884,504.73205 392.34287,492.83630 397.15714,483.92809 C 401.97142,475.01989 414.23084,465.32215 430.03949,458.35636 z M 562.53949,458.45011 C 562.07639,465.67107 562.15961,477.39235 559.61778,487.26415 C 557.07594,497.13596 551.82660,504.99453 540.94569,504.98136 C 526.37999,504.96374 524.70224,492.89879 529.75870,483.89684 C 534.81517,474.89488 547.19959,465.16590 562.53949,458.45011 z "
       id="path1371"
       sodipodi:nodetypes="ccccccssccccsccccscccccsccccccsccccscccczsccccccccsssccsssc" />
    <rect
       style="opacity:1.0000000;color:#000000;fill:#f1f1f1;fill-opacity:1.0000000;fill-rule:evenodd;stroke:none;stroke-width:2.0987501;stroke-linecap:butt;stroke-linejoin:miter;marker:none;marker-start:none;marker-mid:none;marker-end:none;stroke-miterlimit:4.0000000;stroke-dasharray:none;stroke-dashoffset:0.0000000;stroke-opacity:1.0000000;visibility:visible;display:inline;overflow:visible"
       id="rect2317"
       width="611.13660"
       height="209.93242"
       x="52.934830"
       y="347.36218"
       rx="8.1943188"
       ry="8.1971140"
       inkscape:export-filename="/home/cale/Cabal-With-Text.png"
       inkscape:export-xdpi="90.000000"
       inkscape:export-ydpi="90.000000" />
    <rect
       style="opacity:1.0000000;color:#000000;fill:#303030;fill-opacity:1.0000000;fill-rule:evenodd;stroke:none;stroke-width:2.0987501;stroke-linecap:butt;stroke-linejoin:miter;marker:none;marker-start:none;marker-mid:none;marker-end:none;stroke-miterlimit:4.0000000;stroke-dasharray:none;stroke-dashoffset:0.0000000;stroke-opacity:1.0000000;visibility:visible;display:inline;overflow:visible"
       id="rect2307"
       width="611.13660"
       height="209.93242"
       x="53.438133"
       y="132.64691"
       rx="8.1943188"
       ry="8.1971140"
       inkscape:export-filename="/home/cale/Cabal-With-Text.png"
       inkscape:export-xdpi="90.000000"
       inkscape:export-ydpi="90.000000" />
    <rect
       style="opacity:1.0000000;color:#000000;fill:#6bc9dd;fill-opacity:1.0000000;fill-rule:evenodd;stroke:none;stroke-width:2.0987501;stroke-linecap:butt;stroke-linejoin:miter;marker:none;marker-start:none;marker-mid:none;marker-end:none;stroke-miterlimit:4.0000000;stroke-dasharray:none;stroke-dashoffset:0.0000000;stroke-opacity:1.0000000;visibility:visible;display:inline;overflow:visible"
       id="rect2039"
       width="71.415276"
       height="104.27237"
       x="-85.747696"
       y="206.47623"
       ry="8.1971111"
       rx="8.1943159"
       transform="matrix(-0.983393,0.181487,0.601916,0.798559,0.000000,0.000000)"
       inkscape:export-filename="/home/cale/Cabal-With-Text.png"
       inkscape:export-xdpi="90.000000"
       inkscape:export-ydpi="90.000000" />
    <rect
       style="opacity:1.0000000;color:#000000;fill:#6a6bd7;fill-opacity:1.0000000;fill-rule:evenodd;stroke:none;stroke-width:2.0987501;stroke-linecap:butt;stroke-linejoin:miter;marker:none;marker-start:none;marker-mid:none;marker-end:none;stroke-miterlimit:4.0000000;stroke-dasharray:none;stroke-dashoffset:0.0000000;stroke-opacity:1.0000000;visibility:visible;display:inline;overflow:visible"
       id="rect2041"
       width="72.138588"
       height="81.999947"
       x="-517.21075"
       y="406.24854"
       rx="7.1182766"
       ry="8.1971159"
       transform="matrix(-0.985282,0.170934,-0.591748,0.806123,0.000000,0.000000)"
       inkscape:export-filename="/home/cale/Cabal-With-Text.png"
       inkscape:export-xdpi="90.000000"
       inkscape:export-ydpi="90.000000" />
    <path
       sodipodi:type="star"
       style="opacity:1.0000000;color:#000000;fill:#567dd9;fill-opacity:1.0000000;fill-rule:evenodd;stroke:none;stroke-width:2.0987501;stroke-linecap:butt;stroke-linejoin:miter;marker:none;marker-start:none;marker-mid:none;marker-end:none;stroke-miterlimit:4.0000000;stroke-dasharray:none;stroke-dashoffset:0.0000000;stroke-opacity:1.0000000;visibility:visible;display:inline;overflow:visible"
       id="path2061"
       sodipodi:sides="5"
       sodipodi:cx="142.00000"
       sodipodi:cy="228.36218"
       sodipodi:r1="23.282461"
       sodipodi:r2="41.484936"
       sodipodi:arg1="1.9378187"
       sodipodi:arg2="2.5661372"
       inkscape:flatsided="false"
       inkscape:rounded="0.090000000"
       inkscape:randomized="0.0000000"
       d="M 133.64537,250.09403 C 131.42237,249.23942 108.49256,252.93703 107.19644,250.93899 C 105.90032,248.94094 118.62422,229.51026 118.75006,227.13197 C 118.87590,224.75368 108.27356,204.08876 109.77329,202.23865 C 111.27302,200.38854 133.68460,206.48527 135.98537,205.87002 C 138.28615,205.25477 154.66336,188.78553 156.88636,189.64014 C 159.10936,190.49476 160.23658,213.69343 161.53269,215.69147 C 162.82881,217.68952 183.55283,228.17589 183.42698,230.55418 C 183.30114,232.93247 161.58623,241.17330 160.08649,243.02341 C 158.58676,244.87352 155.01770,267.82370 152.71693,268.43895 C 150.41615,269.05420 135.86838,250.94865 133.64537,250.09403 z "
       transform="matrix(0.629241,-0.714808,-0.590778,-0.879095,184.8544,544.0709)"
       inkscape:export-filename="/home/cale/Cabal-With-Text.png"
       inkscape:export-xdpi="90.000000"
       inkscape:export-ydpi="90.000000" />
    <rect
       style="opacity:1.0000000;color:#000000;fill:#2d9bbd;fill-opacity:1.0000000;fill-rule:evenodd;stroke:none;stroke-width:2.0987501;stroke-linecap:butt;stroke-linejoin:miter;marker:none;marker-start:none;marker-mid:none;marker-end:none;stroke-miterlimit:4.0000000;stroke-dasharray:none;stroke-dashoffset:0.0000000;stroke-opacity:1.0000000;visibility:visible;display:inline;overflow:visible"
       id="rect2309"
       width="71.414703"
       height="104.27162"
       x="61.101749"
       y="446.21326"
       ry="8.1970396"
       rx="8.1942444"
       transform="matrix(-0.983393,0.181487,0.601916,0.798559,0.000000,0.000000)"
       inkscape:export-filename="/home/cale/Cabal-With-Text.png"
       inkscape:export-xdpi="90.000000"
       inkscape:export-ydpi="90.000000" />
    <rect
       style="opacity:1.0000000;color:#000000;fill:#4a4bcd;fill-opacity:1.0000000;fill-rule:evenodd;stroke:none;stroke-width:2.0987501;stroke-linecap:butt;stroke-linejoin:miter;marker:none;marker-start:none;marker-mid:none;marker-end:none;stroke-miterlimit:4.0000000;stroke-dasharray:none;stroke-dashoffset:0.0000000;stroke-opacity:1.0000000;visibility:visible;display:inline;overflow:visible"
       id="rect2311"
       width="72.137825"
       height="81.999947"
       x="-703.28143"
       y="716.25806"
       rx="7.1181931"
       ry="8.1971159"
       transform="matrix(-0.985282,0.170934,-0.591748,0.806123,0.000000,0.000000)"
       inkscape:export-filename="/home/cale/Cabal-With-Text.png"
       inkscape:export-xdpi="90.000000"
       inkscape:export-ydpi="90.000000" />
    <path
       sodipodi:type="star"
       style="opacity:1.0000000;color:#000000;fill:#2e5bc1;fill-opacity:1.0000000;fill-rule:evenodd;stroke:none;stroke-width:2.0987501;stroke-linecap:butt;stroke-linejoin:miter;marker:none;marker-start:none;marker-mid:none;marker-end:none;stroke-miterlimit:4.0000000;stroke-dasharray:none;stroke-dashoffset:0.0000000;stroke-opacity:1.0000000;visibility:visible;display:inline;overflow:visible"
       id="path2313"
       sodipodi:sides="5"
       sodipodi:cx="142.00000"
       sodipodi:cy="228.36218"
       sodipodi:r1="23.282461"
       sodipodi:r2="41.484936"
       sodipodi:arg1="1.9378187"
       sodipodi:arg2="2.5661372"
       inkscape:flatsided="false"
       inkscape:rounded="0.090000000"
       inkscape:randomized="0.0000000"
       d="M 133.64537,250.09403 C 131.42237,249.23942 108.49256,252.93703 107.19644,250.93899 C 105.90032,248.94094 118.62422,229.51026 118.75006,227.13197 C 118.87590,224.75368 108.27356,204.08876 109.77329,202.23865 C 111.27302,200.38854 133.68460,206.48527 135.98537,205.87002 C 138.28615,205.25477 154.66336,188.78553 156.88636,189.64014 C 159.10936,190.49476 160.23658,213.69343 161.53269,215.69147 C 162.82881,217.68952 183.55283,228.17589 183.42698,230.55418 C 183.30114,232.93247 161.58623,241.17330 160.08649,243.02341 C 158.58676,244.87352 155.01770,267.82370 152.71693,268.43895 C 150.41615,269.05420 135.86838,250.94865 133.64537,250.09403 z "
       transform="matrix(0.629241,-0.714808,-0.590778,-0.879095,184.7475,762.1694)"
       inkscape:export-filename="/home/cale/Cabal-With-Text.png"
       inkscape:export-xdpi="90.000000"
       inkscape:export-ydpi="90.000000" />
    <g
       id="g4257"
       transform="translate(-4.949617,-5.656605)"
       style="opacity:0.74052477" />
    <path
       style="font-size:202.72231px;font-style:normal;font-variant:normal;font-weight:normal;font-stretch:normal;text-align:start;line-height:125.00000%;writing-mode:lr-tb;text-anchor:start;fill:#ffffff;fill-opacity:1.0000000;stroke:none;stroke-width:1.0000000px;stroke-linecap:butt;stroke-linejoin:miter;stroke-opacity:1.0000000;font-family:Georgia"
       d="M 393.32013,173.62322 C 382.99313,180.74131 364.97585,178.84044 350.91388,178.46697 C 320.96356,175.72724 298.77990,205.15847 297.47638,234.34197 C 293.20038,265.25812 315.70052,300.31780 348.35138,299.40447 C 361.16707,299.90080 372.98098,295.02494 381.82013,286.24822 C 387.60233,302.50308 413.49373,302.10002 424.03883,289.31072 C 425.08193,290.06644 426.38083,291.22188 429.46383,293.25720 C 435.62973,297.32785 443.48953,301.48519 450.66383,298.56072 C 453.73023,297.31078 459.80723,290.14923 465.88263,294.12322 C 483.83083,304.78956 503.80473,294.47908 512.75763,277.77947 C 512.68603,278.84480 512.59453,279.89188 512.66383,281.02947 C 514.11373,302.72987 544.42183,303.61877 556.03883,289.52947 C 557.21573,290.41726 558.69663,291.50756 560.10733,292.53682 C 565.32003,296.34008 573.28823,300.58889 579.66383,299.68572 C 588.00713,301.01536 603.59043,297.34103 610.66383,299.37322 C 613.73813,290.48108 599.29513,295.45721 599.07013,287.68572 C 595.30153,257.18583 596.85780,239.48507 598.85133,204.18572 C 599.19050,198.18013 599.66144,196.61111 600.10133,190.52947 C 601.60790,169.70050 574.84523,175.82157 561.94513,177.12322 C 571.31343,182.23699 587.85333,170.23645 586.28883,204.77947 C 586.53183,223.36063 585.60483,228.49895 585.97633,247.18572 C 584.58413,264.14782 587.48303,282.46310 581.07013,290.52947 C 564.19473,286.10851 572.42512,261.27862 573.41383,244.46697 C 574.87012,219.70496 569.34233,212.13322 546.57013,212.27947 C 517.39703,212.46685 513.42550,254.72152 536.25763,239.94736 C 528.32767,212.04770 565.92310,212.01466 562.57013,237.59197 C 549.80293,243.33065 526.56613,252.19801 517.00763,265.77947 C 517.56213,262.65134 517.75473,259.45173 517.47633,256.21697 C 519.22553,233.03456 500.87139,205.85957 474.85133,217.21697 C 468.97493,219.41647 465.53813,221.56326 461.53883,223.12322 C 461.42873,216.55143 462.15603,200.91646 462.50763,190.21697 C 463.19343,169.34484 436.97023,175.50907 424.07013,176.81072 C 433.43843,181.92449 451.29713,171.06786 449.85133,205.84197 C 449.50723,233.86927 450.27933,262.13620 448.57013,289.96697 C 433.08723,284.80611 440.61763,260.71401 441.41383,244.24822 C 443.04543,219.49623 437.34233,211.91446 414.57013,212.06072 C 385.39703,212.24810 381.40773,253.81346 404.25763,239.93572 C 398.09543,212.03606 433.49913,212.14944 430.41383,237.62322 C 416.63243,244.00817 386.21383,254.01649 381.38263,273.52947 C 380.54643,274.77198 379.79673,276.14330 379.28883,277.77947 C 365.84234,299.34607 330.92216,294.97828 320.82013,271.65447 C 310.71810,248.33066 308.93204,208.65840 333.19513,192.43572 C 355.05998,177.81655 386.98543,187.83597 382.53883,221.81072 C 395.78913,224.62249 391.11763,184.28436 393.32013,173.62322 z M 479.47633,224.34197 C 495.48622,224.34197 503.49843,239.45181 504.35133,257.56072 C 505.22913,279.24826 495.08852,296.43014 474.72633,286.93572 C 454.30522,277.41382 459.83523,247.62119 461.19513,229.06072 C 466.79093,226.22116 474.60396,224.34197 479.47633,224.34197 z M 429.88263,243.71697 C 429.48203,251.00043 429.44025,262.65921 426.88279,272.46852 C 424.32533,282.27782 419.03881,290.14343 409.53883,290.12322 C 395.17198,290.09266 392.93601,278.19691 397.75028,269.28870 C 402.56456,260.38050 414.07398,250.68276 429.88263,243.71697 z M 562.38263,243.81072 C 561.91953,251.03168 562.00275,262.75296 559.46092,272.62476 C 556.91908,282.49657 551.66974,290.35514 540.78883,290.34197 C 526.22313,290.32435 524.54538,278.25940 529.60184,269.25745 C 534.65831,260.25549 547.04273,250.52651 562.38263,243.81072 z "
       id="path2787"
       sodipodi:nodetypes="ccccccssccccscccssccccssccccccsccccscccczsccccscscsssccsssc" />
    <path
       style="font-size:202.72231px;font-style:normal;font-variant:normal;font-weight:normal;font-stretch:normal;text-align:start;line-height:125.00000%;writing-mode:lr-tb;text-anchor:start;fill:#000000;fill-opacity:1.0000000;stroke:none;stroke-width:1.0000000px;stroke-linecap:butt;stroke-linejoin:miter;stroke-opacity:1.0000000;font-family:Georgia"
       d="M 393.29590,388.18206 C 382.96890,395.30015 364.95162,393.39928 350.88965,393.02581 C 320.93933,390.28608 298.75567,419.71731 297.45215,448.90081 C 293.17615,479.81696 315.67629,514.87664 348.32715,513.96331 C 361.14284,514.45964 372.95675,509.58378 381.79590,500.80706 C 387.57810,517.06192 413.46950,516.65886 424.01460,503.86956 C 425.05770,504.62528 426.35660,505.78072 429.43960,507.81604 C 435.60550,511.88669 443.46530,516.04403 450.63960,513.11956 C 453.70600,511.86962 459.78300,504.70807 465.85840,508.68206 C 483.80660,519.34840 503.78050,509.03792 512.73340,492.33831 C 512.66180,493.40364 512.57030,494.45072 512.63960,495.58831 C 514.08950,517.28871 544.39760,518.17761 556.01460,504.08831 C 557.19150,504.97610 558.67240,506.06640 560.08310,507.09566 C 565.29580,510.89892 573.26400,515.14773 579.63960,514.24456 C 587.98290,515.57420 603.56620,511.89987 610.63960,513.93206 C 613.71390,505.03992 599.27090,510.01605 599.04590,502.24456 C 595.27730,471.74467 596.83357,454.04391 598.82710,418.74456 C 599.16627,412.73897 599.63721,411.16995 600.07710,405.08831 C 601.58367,384.25934 574.82100,390.38041 561.92090,391.68206 C 571.28920,396.79583 587.82910,384.79529 586.26460,419.33831 C 586.50760,437.91947 585.58060,443.05779 585.95210,461.74456 C 584.55990,478.70666 587.45880,497.02194 581.04590,505.08831 C 564.17050,500.66735 572.40089,475.83746 573.38960,459.02581 C 574.84589,434.26380 569.31810,426.69206 546.54590,426.83831 C 517.37280,427.02569 513.40127,469.28036 536.23340,454.50620 C 528.30344,426.60654 565.89887,426.57350 562.54590,452.15081 C 549.77870,457.88949 526.54190,466.75685 516.98340,480.33831 C 517.53790,477.21018 517.73050,474.01057 517.45210,470.77581 C 519.20130,447.59340 500.84716,420.41841 474.82710,431.77581 C 468.95070,433.97531 465.51390,436.12210 461.51460,437.68206 C 461.40450,431.11027 462.13180,415.47530 462.48340,404.77581 C 463.16920,383.90368 436.94600,390.06791 424.04590,391.36956 C 433.41420,396.48333 451.27290,385.62670 449.82710,420.40081 C 449.48300,448.42811 450.25510,476.69504 448.54590,504.52581 C 433.06300,499.36495 440.59340,475.27285 441.38960,458.80706 C 443.02120,434.05507 437.31810,426.47330 414.54590,426.61956 C 385.37280,426.80694 381.38350,468.37230 404.23340,454.49456 C 398.07120,426.59490 433.47490,426.70828 430.38960,452.18206 C 416.60820,458.56701 386.18960,468.57533 381.35840,488.08831 C 380.52220,489.33082 379.77250,490.70214 379.26460,492.33831 C 365.81811,513.90491 330.89793,509.53712 320.79590,486.21331 C 310.69387,462.88950 308.90781,423.21724 333.17090,406.99456 C 355.03575,392.37539 386.96120,402.39481 382.51460,436.36956 C 395.76490,439.18133 391.09340,398.84320 393.29590,388.18206 z M 479.45210,438.90081 C 495.46199,438.90081 503.47420,454.01065 504.32710,472.11956 C 505.20490,493.80710 495.06429,510.98898 474.70210,501.49456 C 454.28099,491.97266 459.81100,462.18003 461.17090,443.61956 C 466.76670,440.78000 474.57973,438.90081 479.45210,438.90081 z M 429.85840,458.27581 C 429.45780,465.55927 429.41602,477.21805 426.85856,487.02736 C 424.30110,496.83666 419.01458,504.70227 409.51460,504.68206 C 395.14775,504.65150 392.91178,492.75575 397.72605,483.84754 C 402.54033,474.93934 414.04975,465.24160 429.85840,458.27581 z M 562.35840,458.36956 C 561.89530,465.59052 561.97852,477.31180 559.43669,487.18360 C 556.89485,497.05541 551.64551,504.91398 540.76460,504.90081 C 526.19890,504.88319 524.52115,492.81824 529.57761,483.81629 C 534.63408,474.81433 547.01850,465.08535 562.35840,458.36956 z "
       id="path4971"
       sodipodi:nodetypes="ccccccssccccscccssccccssccccccsccccscccczsccccscscsssccsssc" />
  </g>
</svg>
